<svg version="1.1" xmlns="http://www.w3.org/2000/svg" width="100" height="100" viewBox="0 0 1024 1024">
	<path d="M972.999 490.999c0 265.098-214.902 480-480 480s-480-214.902-480-480c0-265.098 214.902-480 480-480s480 214.902 480 480z"></path>
	<path fill="#999" d="M274.522 905.35c-0.527 26.622 10.050 4.289 10.111 0.193 0.527-23.010 4.817-45.857 9.039-68.049l0.608-2.88c4.256-22.543 9.6-51.887 14.159-81.81-0.959-0.737-1.663-1.873-1.808-3.168l-15.33-131.585c-15.008 69.951-21.39 141.266-18.943 212.494 0.241 7.294 0.575 14.61 0.913 21.922 0.831 17.489 1.632 35.25 1.248 52.881zM386.010 478.488v0.064c5.186 1.183 10.35 3.008 15.168 5.311 0.639-6.785 0.608-13.65-0.064-20.43-3.6 3.617-7.217 7.217-10.8 10.8-1.41 1.441-2.815 2.85-4.304 4.256zM506.936 272.136c0-6-12.241-10.83-27.378-10.83-15.073 0-27.33 4.83-27.33 10.83s13.825 5.105 28.929 5.105c15.073 0 25.775 0.895 25.775-5.105zM475.337 296.586c-11.807-0.592-21.33 9.359-19.345 19.663 0.432 2.37 4.543 2.481 5.649 0.544 3.378-5.666 5.537-15.57 15.506-11.151 6.831 3.089 8.687 10.817 15.201 13.441 1.937 0.75 4.83 0.673 5.871-1.294 5.55-10.385-13.136-20.769-22.881-21.201zM472.264 359.192c-4.478 7.775-11.070 14.863-20.306 18.334-11.952 4.495-22.912 1.024-34.414-2.734-1.873-0.544-5.087 0.99-3.343 2.896 20.113 21.089 59.456 5.695 67.281-17.232 1.487-4.414-7.376-4.368-9.214-1.264zM427.752 361.432c3.442 0.463 7.136-3.249 4.368-5.824-8.593-7.937-26.306-10.175-22.225-24.45 2.641-9.39 9.934-17.906 13.586-27.073 0.93-2.37-3.681-2.832-4.976-1.505-6.351 6.145-11.263 13.615-15.729 20.992-3.089 5.134-7.873 11.392-5.906 17.392 3.15 9.857 20.288 19.088 30.878 20.464zM411.193 278.95c0-6-12.222-10.864-27.343-10.864s-27.33 4.864-27.33 10.864c0 5.97 13.761 5.122 28.894 5.122 15.104 0 25.775 0.849 25.775-5.122zM387.785 304.887c0-4.256-3.934-7.711-8.687-7.711h-0.592c-4.736 0-8.67 3.455-8.67 7.711v16.273c0 4.239 3.934 7.696 8.67 7.696h0.592c4.752 0 8.687-3.455 8.687-7.696v-16.273zM523.478 419.161c-2.4 10.752-4.83 21.822-4.225 33.008 0.544 9.488 4.304 16.958 10.192 21.137-35.743 5.678-75.089 15.455-103.071 36.094-2.049-7.457-7.393-13.95-14.43-19.183 1.839-12.99 1.441-26.207-1.088-39.185 0-0.048-0.030-0.158-0.030-0.21 0-0.112-0.030-0.21-0.064-0.351-0.048-0.305-0.158-0.575-0.222-0.866 0.287 0.017 0.575 0.048 0.831 0.048h0.241c33.729 2.143 67.65-17.408 94.624-33.378 3.231-1.904-0.625-4.783-3.39-3.295-8.558 4.624-16.929 8.769-25.376 12.386-5.392-7.632-10.736-15.056-15.407-23.105-0.959-1.696-5.678-1.329-5.010 0.895 2.494 8.722 6.45 17.888 11.97 25.632-2.657 0.99-5.327 1.95-7.968 2.85-0.112-0.064-0.193-0.081-0.257-0.112-0.030-0.386-0.608-1.007-1.808-1.904-0.978-1.294-1.839-2.576-2.722-3.887-1.663-2.657-3.266-5.361-4.706-8.113-2.863-5.439-5.087-11.199-6.878-16.976-0.511-1.727-4.256-1.088-4.144 0.704 0.496 8.352 2.37 16.414 5.936 24.145 1.376 3.039 2.769 6.608 5.041 8.961-3.12 0.814-6.222 1.599-9.407 2.224-1.071-3.506-2.751-6.943-3.999-10.401-3.214-8.622-6.030-17.296-8.4-26.095-0.544-1.92-4.706-1.825-4.368 0.287 1.17 7.663 2.481 15.313 4.401 22.894 1.217 4.736 2.19 10.032 4.256 14.705-2.178 0.351-4.289 0.608-6.48 0.801-0.737-1.727-1.522-3.424-2.336-5.087-1.551-3.471-3.201-6.959-4.655-10.478-3.168-7.487-5.952-15.137-8.769-22.719-0.592-1.569-4.256-1.088-3.999 0.639 1.41 9.681 3.776 19.119 6.673 28.513 0.849 2.734 1.632 6.399 2.863 9.793-1.441 0.081-2.863 0.129-4.35 0.129-2.657-0.831-5.186-1.775-7.65-2.911-0.064-0.030-0.112-0.064-0.176-0.112-2.67-1.183-5.375-2.558-7.968-4.161-29.057-17.824-41.55-49.551-46.864-73.024-3.583-15.6-5.296-31.92-6.93-47.666-1.41-13.663-2.896-27.758-5.601-41.585-0.081-0.322-0.158-0.592-0.27-0.878 5.537-17.504 20.066-32.769 39.15-42.849 4.414 7.088 10.414 13.457 16.578 19.312 5.311 4.993 11.375 12.193 19.696 12.369 8.13 0.21-6.656-37.599-5.906-43.727 5.601 3.137 30.193 36.704 36.943 32.178 9.776-6.639 12.575-19.345 11.473-31.071 11.97 2.095 23.392 5.537 34.063 9.87-0.21 0.544 0.017 1.071 0.831 1.505 24.322 12.257 40.848 32.687 49.345 56.19 7.119 19.727 13.569 46.161 6 66.689 0 0.094-0.030 0.21-0.064 0.257 0.334-0.048 0.625-0.048 0.895 0 0.463 0.193 1.024 0.287 1.551 0.463 1.551 0.544 3.12 1.264 4.59 2.049-1.329 1.23-2.576 2.545-3.681 3.87-0.561 0.592-1.042 1.23-1.487 1.873l-0.030 0.017c-5.041 6.575-8.481 14.049-11.296 21.63-1.904 4.912-4.543 10.958-5.425 16.719-2.001 0.639-3.6 2.224-3.822 4.273-0.704 5.952-2.001 11.97-3.407 18.222zM559.35 352.552c12.496 0.878 24.030-3.201 31.825-14.961 4.032-6.081 5.855-12.656 7.088-19.376-3.519-6.176-7.422-12.222-11.906-18.158-1.873 6.592-4.208 13.2-7.106 19.65-4.032 9.15-9.694 24.689-20.911 29.759-0.305 0.608-0.625 1.217-1.042 1.792 0.93 0.193 1.761 0.608 2.049 1.294zM539.271 466.536c1.152 0.322 2.593 0.369 4.080 0.48 1.534 0.081 3.056 0.21 4.495 0.432 11.232 1.68 20.319 10.414 25.68 24.511l0.432 1.183c1.042 2.799 1.968 5.425 3.681 7.17 1.071 1.17 2.85 1.792 3.712 1.65 0.030 0 0.081 0 0.112-0.017 0.866-0.351 1.744-1.329 2.622-2.336 0.801-0.866 1.551-1.761 2.4-2.545 6.030-5.678 15.12-6.801 21.137-7.551 2.4-0.287 4.478-0.496 6.399-0.625-1.2-5.952-3.378-10.881-6.75-15.15-3.648-4.736-8.67-8.593-14.014-12.689-1.2-0.943-2.417-1.904-3.63-2.85-4.466-3.506-8.657-7.119-12.561-10.8-0.544 0.048-1.106 0.112-1.615 0.112-5.375 0-11.169-2.288-17.215-6.704-9.168-6.656-16.848-15.12-22.466-24.45-0.334 1.599-0.72 3.168-1.055 4.8-2.319 10.578-4.559 20.576-3.999 30.463 0.322 6 2.832 13.487 8.558 14.911zM470.585 562.073c-0.785-2.88-6.386-2.352-6.305 0.656 0.801 26.545 3.039 52.881 1.696 79.457-1.248 24.27-9.12 49.41-7.968 73.487 0.222 3.295 6.673 2.88 7.873 0.45 11.327-22.993 11.311-52.401 11.906-77.151 0.656-25.615-0.48-51.905-7.2-76.894zM400.41 635.495c0.48-24.287 3.969-49.055 2.37-73.23-0.158-2.657-5.408-2.288-6.017 0.017-6.094 24.544-5.824 51.185-6.625 76.208-0.801 25.522-0.831 50.961-0.129 76.401 0.193 6.145 12.129 5.601 12.27-0.081 0.112-4.015 0.048-5.936-0.351-9.822-0.030-0.351-0.112-0.639-0.222-0.895-1.23-22.864-1.711-45.758-1.294-68.593zM626.936 940.986c-0.257 3.999-25.711 14.4-59.631 18.849-32.031 4.192-73.615 6.93-114.463 5.186-74.512-3.168-158.383-30.625-158.911-43.264-1.055-26.078 6.21-56.961 11.070-82.53l0.544-2.944c4.495-23.695 10.239-54.959 14.944-86.494 13.522-90.737 15.63-164.078 6.544-230.37 1.889-0.625 3.745-1.217 5.713-1.856 5.010-1.534 10.161-3.056 15.104-5.537 0.496-0.257 0.978-0.511 1.47-0.768 2.751 7.696 7.487 14.961 13.904 21.33 12.656 12.656 36.030 27.073 56.001 23.361 2.464-0.463 1.312-3.025-0.831-2.944-15.583 0.463-35.79-13.294-45.776-23.263-7.2-7.119-12.129-15.488-14.494-24.241 4.706-3.758 8.815-7.856 12.639-11.666 3.201-3.231 6.415-6.463 9.6-9.664h0.048c6.978 2.19 13.457 5.28 19.358 9.664 0.432 0.351 0.895 0.673 1.345 1.024 3.185 2.529 5.855 5.375 8.306 8.352 3.231 3.999 6.081 8.255 9.442 12.241-4.958 4.368-9.407 9.185-13.329 14.43-2.383 3.231 4.144 4.239 6.193 2.512 40.431-34.080 85.937-42.561 138.496-53.489 6.527 3.313 10.431 11.122 12.351 16.111-23.327-4.958-50.558 0.496-70.929 9.934-4.256 2.066 0.496 5.614 3.905 4.719 24.048-6.463 46.111-6.608 70.401-6.75 0.785 1.358 1.711 2.687 2.832 3.951 2.224 2.336 5.232 3.999 8.242 4.783v0.399c-9.249 8.558-21.552 13.873-34.688 18.351-22.706 7.775-63.63 20.113-85.281 5.375-2.944-1.95-8.43 1.264-5.678 4.273 18.287 19.792 66.030 8.911 88.35 2.242 11.842-3.488 26.306-8.13 37.534-15.33l2.336 131.678c0.639 34.976 1.487 78.369 22.671 113.778-4.050 30.017-2.336 63.104 5.25 101.070 0.639 3.231 1.329 6.463 2.014 9.694 3.488 16.848 18.48 40.8 17.408 57.793zM329.224 259.241c14.448-31.632 54.527-55.183 97.889-56.13 5.361-0.145 10.671 0.017 15.922 0.527 3.442 0.222 6.878 0.625 10.225 1.152 38.832 5.73 71.936 25.042 94.466 41.855 11.695 8.769 22.273 18.112 31.599 27.87 3.536 3.694 6.93 7.41 10.111 11.263 4.175 5.010 8.014 10.175 11.614 15.407 3.887 5.666 7.358 11.489 10.368 17.344 9.841 18.592 15.407 37.856 16.401 56.975 18.639-10.096 32.464-26.705 37.615-45.681 1.441-5.215 2.159-10.543 2.242-15.934-20.896-38.37-41.743-73.294-78.399-102.978-40.273-32.512-89.666-54.463-143.296-62.85-4.175-0.625-2.734-5.105 1.152-4.671 53.134 6.27 103.441 26.207 144.561 56.911 33.12 24.72 66.048 59.28 80.88 97.217 13.23-14.271 20.207-34.706 18.463-54.656-2.095-24.334-15.664-49.839-39.168-73.873-44.224-45.214-110.178-71.263-172.431-68.19-66.978 3.33-127.839 40.59-151.441 92.769-7.119 15.87-9.758 30.608-7.68 43.761 1.23 8.049 4.304 15.57 8.911 21.905zM762.506 877.704c-18.673-73.825-37.376-147.694-56.049-221.537-6.737-26.61-14.383-56.815-34.671-79.23-2.815-3.168-5.855-6.129-9.056-9.231-3.378-3.249-6.785-6.544-9.87-10.063-3.295 57.922-11.122 115.937-23.186 172.719 7.042 17.504 10.466 36.322 9.87 54.575-0.158 4.929-0.592 9.857-1.007 14.67-0.801 9.552-1.586 18.511-0.369 27.519 0.704 5.296 2.13 10.495 3.63 16.015 1.23 4.466 2.494 9.089 3.343 13.839 3.33 18.176 16.401 62.751 13.761 80.494 0 0-6.785-0.511 18.93-9.313 29.473-10.063 89.375-31.792 84.673-50.464z"></path>
</svg>
