<?xml version="1.0" encoding="utf-8"?>
<svg viewBox="0 0 1024 1024" xmlns="http://www.w3.org/2000/svg">
  <path fill="#000" d="M972.999 490.999c0 265.098-214.902 480-480 480s-480-214.902-480-480c0-265.098 214.902-480 480-480s480 214.902 480 480z"/>
  <path fill="#999" d="M 275.692 905.35 C 273.956 915.629 275.233 919.919 277.459 921.075 C 279.439 922.104 285.086 924.734 286.144 922.947 C 287.776 920.191 287.151 923.2 286.973 914.321 C 286.512 891.31 290.62 859.686 294.842 837.494 L 295.45 834.614 C 299.706 812.071 305.05 782.727 309.609 752.804 C 309.532 753.39 309.851 748.391 309.706 747.096 L 292.471 618.051 C 277.463 688.002 271.081 759.317 273.528 830.545 C 273.769 837.839 274.103 845.155 274.441 852.467 C 275.272 869.956 276.073 887.717 275.689 905.348 L 275.692 905.35 Z M 387.18 478.488 L 387.18 478.552 C 392.366 479.735 397.53 481.56 402.348 483.863 C 402.987 477.078 402.956 470.213 402.284 463.433 C 398.684 467.05 395.067 470.65 391.484 474.233 C 390.074 475.674 388.669 477.083 387.18 478.489 L 387.18 478.488 Z M 508.106 272.136 C 508.106 266.136 495.865 261.306 480.728 261.306 C 465.655 261.306 453.398 266.136 453.398 272.136 C 453.398 278.136 467.223 277.241 482.327 277.241 C 497.4 277.241 508.102 278.136 508.102 272.136 L 508.106 272.136 Z M 476.507 296.586 C 464.7 295.994 455.177 305.945 457.162 316.249 C 457.594 318.619 461.705 318.73 462.811 316.793 C 466.189 311.127 468.348 301.223 478.317 305.642 C 485.148 308.731 487.004 316.459 493.518 319.083 C 495.455 319.833 498.348 319.756 499.389 317.789 C 504.939 307.404 486.253 297.02 476.508 296.588 L 476.507 296.586 Z M 473.434 359.192 C 468.956 366.967 462.364 374.055 453.128 377.526 C 441.176 382.021 430.216 378.55 418.714 374.792 C 416.841 374.248 413.627 375.782 415.371 377.688 C 435.484 398.777 474.827 383.383 482.652 360.456 C 484.139 356.042 475.276 356.088 473.438 359.192 L 473.434 359.192 Z M 428.922 361.432 C 432.364 361.895 436.058 358.183 433.29 355.608 C 424.697 347.671 406.984 345.433 411.065 331.158 C 413.706 321.768 420.999 313.252 424.651 304.085 C 425.581 301.715 420.97 301.253 419.675 302.58 C 413.324 308.725 408.412 316.195 403.946 323.572 C 400.857 328.706 396.073 334.964 398.04 340.964 C 401.19 350.821 418.328 360.052 428.918 361.428 L 428.922 361.432 Z M 412.363 278.95 C 412.363 272.95 400.141 268.086 385.02 268.086 C 369.899 268.086 357.69 272.95 357.69 278.95 C 357.69 284.92 371.451 284.072 386.584 284.072 C 401.688 284.072 412.359 284.921 412.359 278.95 L 412.363 278.95 Z M 388.955 304.887 C 388.955 300.631 385.021 297.176 380.268 297.176 L 379.676 297.176 C 374.94 297.176 371.006 300.631 371.006 304.887 L 371.006 321.16 C 371.006 325.399 374.94 328.856 379.676 328.856 L 380.268 328.856 C 385.02 328.856 388.955 325.401 388.955 321.16 L 388.955 304.887 Z M 524.648 419.161 C 522.248 429.913 519.818 440.983 520.423 452.169 C 520.967 461.657 524.727 469.127 530.615 473.306 C 494.872 478.984 455.526 488.761 427.544 509.4 C 425.495 501.943 420.151 495.45 413.114 490.217 C 414.953 477.227 414.555 464.01 412.026 451.032 C 412.026 450.984 411.996 450.874 411.996 450.822 C 411.996 450.71 411.966 450.612 411.932 450.471 C 411.884 450.166 411.774 449.896 411.71 449.605 C 411.997 449.622 412.285 449.653 412.541 449.653 L 412.782 449.653 C 446.511 451.796 480.432 432.245 507.406 416.275 C 510.637 414.371 506.781 411.492 504.016 412.98 C 495.458 417.604 487.087 421.749 478.64 425.366 C 473.248 417.734 467.904 410.31 463.233 402.261 C 462.274 400.565 457.555 400.932 458.223 403.156 C 460.717 411.878 464.673 421.044 470.193 428.788 C 467.536 429.778 464.866 430.738 462.225 431.638 C 462.113 431.574 462.032 431.557 461.968 431.526 C 461.938 431.14 461.36 430.519 460.16 429.622 C 459.182 428.328 458.321 427.046 457.438 425.735 C 455.775 423.078 454.172 420.374 452.732 417.622 C 449.869 412.183 447.645 406.423 445.854 400.646 C 445.343 398.919 441.598 399.558 441.71 401.35 C 442.206 409.702 444.08 417.764 447.646 425.495 C 449.022 428.534 450.415 432.103 452.687 434.456 C 449.567 435.27 446.465 436.055 443.28 436.68 C 442.209 433.174 440.529 429.737 439.281 426.279 C 436.067 417.657 433.251 408.983 430.881 400.184 C 430.337 398.264 426.175 398.359 426.513 400.471 C 427.683 408.134 428.994 415.784 430.914 423.365 C 432.131 428.101 433.104 433.397 435.17 438.07 C 432.992 438.421 430.881 438.678 428.69 438.871 C 427.953 437.144 427.168 435.447 426.354 433.784 C 424.803 430.313 423.153 426.825 421.699 423.306 C 418.531 415.819 415.747 408.169 412.93 400.587 C 412.338 399.018 408.674 399.499 408.931 401.226 C 410.341 410.907 412.707 420.345 415.604 429.739 C 416.453 432.473 417.236 436.138 418.467 439.532 C 417.026 439.613 415.604 439.661 414.117 439.661 C 411.46 438.83 408.931 437.886 406.467 436.75 C 406.403 436.72 406.355 436.686 406.291 436.638 C 403.621 435.455 400.916 434.08 398.323 432.477 C 369.266 414.653 356.773 382.926 351.459 359.453 C 347.876 343.853 346.163 327.533 344.529 311.787 C 343.119 298.124 341.633 284.029 338.928 270.202 C 338.847 269.88 338.77 269.61 338.658 269.324 C 344.195 251.82 358.724 236.555 377.808 226.475 C 382.222 233.563 388.222 239.932 394.386 245.787 C 399.697 250.78 405.761 257.98 414.082 258.156 C 422.212 258.366 399.847 226.758 400.597 220.63 C 406.198 223.767 438.369 251.133 445.119 246.607 C 454.895 239.968 426.688 226.573 425.586 214.847 C 430.687 214.362 440.63 213.557 451.978 215.048 C 467.26 217.054 484.531 222.919 490.655 225.406 C 490.445 225.95 490.672 226.477 491.486 226.911 C 515.808 239.168 532.334 259.598 540.831 283.101 C 547.95 302.828 554.4 329.262 546.831 349.79 C 546.831 349.884 546.801 350 546.767 350.047 C 547.101 349.999 547.392 349.999 547.662 350.047 C 548.125 350.24 548.686 350.334 549.213 350.51 C 550.764 351.054 552.333 351.774 553.803 352.559 C 552.474 353.789 551.227 355.104 550.122 356.429 C 549.561 357.021 549.08 357.659 548.635 358.302 L 548.605 358.319 C 543.564 364.894 540.124 372.368 537.309 379.949 C 535.405 384.861 531.388 390.907 530.506 396.668 C 529.883 397.307 526.061 412.911 524.655 419.163 L 524.648 419.161 Z M 560.52 352.552 C 573.016 353.43 584.55 349.351 592.345 337.591 C 596.377 331.51 598.2 324.935 599.433 318.215 C 595.914 312.039 592.011 305.993 587.527 300.057 C 585.654 306.649 583.319 313.257 580.421 319.707 C 576.389 328.857 570.727 344.396 559.51 349.466 C 559.205 350.074 558.885 350.683 558.468 351.258 C 559.398 351.451 560.229 351.866 560.517 352.552 L 560.52 352.552 Z M 540.441 466.536 C 541.593 466.858 543.034 466.905 544.521 467.016 C 546.055 467.097 547.577 467.226 549.016 467.448 C 560.248 469.128 569.335 477.862 574.696 491.959 L 575.128 493.142 C 576.17 495.941 577.096 498.567 578.809 500.312 C 579.88 501.482 581.659 502.104 582.521 501.962 C 582.551 501.962 582.602 501.962 582.633 501.945 C 583.499 501.594 584.377 500.616 585.255 499.609 C 586.056 498.743 586.806 497.848 587.655 497.064 C 593.685 491.386 602.775 490.263 608.792 489.513 C 611.192 489.226 613.27 489.017 615.191 488.888 C 613.991 482.936 611.813 478.007 608.441 473.738 C 604.793 469.002 599.771 465.145 594.427 461.049 C 593.227 460.106 592.01 459.145 590.797 458.199 C 586.331 454.693 581.451 451.769 577.547 448.088 C 577.003 448.136 542.558 425.687 536.94 416.357 C 536.606 417.956 536.22 419.525 535.885 421.157 C 533.566 431.735 531.326 441.733 531.886 451.62 C 532.208 457.62 534.718 465.107 540.444 466.531 L 540.441 466.536 Z M 471.755 562.073 C 470.97 559.193 465.369 559.721 465.45 562.729 C 466.251 589.274 468.489 615.61 467.146 642.186 C 465.898 666.456 458.026 691.596 459.178 715.673 C 459.4 718.968 465.851 718.553 467.051 716.123 C 478.378 693.13 478.362 663.722 478.957 638.972 C 479.613 613.357 478.477 587.067 471.757 562.078 L 471.755 562.073 Z M 401.58 635.495 C 402.06 611.208 405.549 586.44 403.95 562.265 C 403.792 559.608 398.542 559.977 397.933 562.282 C 391.839 586.826 392.109 613.467 391.308 638.49 C 390.507 664.012 390.477 689.451 391.179 714.891 C 391.372 721.036 403.308 720.492 403.449 714.81 C 403.561 710.795 403.497 708.874 403.098 704.988 C 403.068 704.637 402.986 704.349 402.876 704.093 C 401.646 681.229 401.165 658.335 401.582 635.5 L 401.58 635.495 Z M 625.179 951.747 C 626.785 953.455 603.205 959.153 584.412 962.726 C 568.155 965.818 552.054 967.753 537.393 969.247 C 528.991 970.103 510.472 970.953 493.126 970.953 C 479.427 970.954 466.918 970.271 457.523 969.703 C 406.691 966.627 359.946 954.636 329.334 942.274 C 315.115 936.532 293.512 929.863 293.345 925.854 C 292.29 899.776 301.311 864.796 306.171 839.227 L 306.715 836.283 C 311.21 812.588 316.954 781.324 321.659 749.789 C 335.181 659.052 337.289 585.711 328.203 519.419 C 330.092 518.794 331.948 518.202 333.916 517.563 C 338.926 516.029 344.077 514.507 349.02 512.026 C 349.516 511.769 349.998 511.515 350.49 511.258 C 353.241 518.954 357.977 526.219 364.394 532.588 C 377.05 545.244 400.424 559.661 420.395 555.949 C 422.859 555.486 421.707 552.924 419.564 553.005 C 403.981 553.468 383.774 539.711 373.788 529.742 C 366.588 522.623 361.659 514.254 359.294 505.501 C 364 501.743 368.109 497.645 371.933 493.835 C 375.134 490.604 378.348 487.372 381.533 484.171 L 381.581 484.171 C 388.559 486.361 395.038 489.451 400.939 493.835 C 401.371 494.186 401.834 494.508 402.284 494.859 C 405.469 497.388 408.139 500.234 410.59 503.211 C 413.821 507.21 416.671 511.466 420.032 515.452 C 415.074 519.82 410.625 524.637 406.703 529.882 C 404.32 533.113 410.847 534.121 412.896 532.394 C 453.327 498.314 498.833 489.833 551.392 478.905 C 557.919 482.218 561.823 490.027 563.743 495.016 C 540.416 490.058 513.185 495.512 492.814 504.95 C 488.558 507.016 493.31 510.564 496.719 509.669 C 520.767 503.206 542.83 503.061 567.12 502.919 C 567.905 504.277 568.831 505.606 569.952 506.87 C 572.176 509.206 575.184 510.869 578.194 511.653 L 578.194 512.052 C 568.945 520.61 556.642 525.925 543.506 530.403 C 520.8 538.178 479.876 550.516 458.225 535.778 C 455.281 533.828 449.795 537.042 452.547 540.051 C 470.834 559.843 518.577 548.962 540.897 542.293 C 552.739 538.805 567.203 534.163 578.431 526.963 L 580.767 658.641 C 581.406 693.617 601.102 835.523 608.688 873.489 C 609.327 876.72 610.017 879.952 610.702 883.183 C 614.19 900.031 610.455 883.017 616.991 917.567 L 625.179 951.747 Z M 330.394 259.241 C 344.842 227.609 384.921 204.058 428.283 203.111 C 433.644 202.966 438.954 203.128 444.205 203.638 C 447.647 203.86 451.083 204.263 454.43 204.79 C 493.262 210.52 526.366 229.832 548.896 246.645 C 560.591 255.414 571.169 264.757 580.495 274.515 C 584.031 278.209 587.425 281.925 590.606 285.778 C 594.781 290.788 598.62 295.953 602.22 301.185 C 606.107 306.851 609.578 312.674 612.588 318.529 C 622.429 337.121 627.995 356.385 628.989 375.504 C 647.628 365.408 661.453 348.799 666.604 329.823 C 668.045 324.608 668.763 319.28 668.846 313.889 C 647.95 275.519 627.103 240.595 590.447 210.911 C 550.174 178.399 500.781 156.448 447.151 148.061 C 442.976 147.436 444.417 142.956 448.303 143.39 C 501.437 149.66 551.744 169.597 592.864 200.301 C 625.984 225.021 658.912 259.581 673.744 297.518 C 686.974 283.247 693.951 262.812 692.207 242.862 C 690.112 218.528 676.543 193.023 653.039 168.989 C 608.815 123.775 542.861 97.726 480.608 100.799 C 413.63 104.129 352.769 141.389 329.167 193.568 C 322.048 209.438 319.409 224.176 321.487 237.329 C 322.717 245.378 325.791 252.899 330.398 259.234 L 330.394 259.241 Z M 764.489 886.645 C 745.816 812.82 726.3 730.01 707.627 656.167 C 700.89 629.557 693.244 599.352 672.956 576.937 C 670.141 573.769 667.101 570.808 663.9 567.706 C 660.522 564.457 657.115 561.162 654.03 557.643 C 652.382 586.608 639.508 617.279 635.631 646.125 C 631.754 674.963 631.828 701.975 630.844 730.362 C 632.839 752.913 641.468 837.621 642.968 843.141 C 644.198 847.607 645.462 852.23 646.311 856.98 C 649.641 875.156 664.338 939.238 664.136 939.099 C 664.136 939.099 683.063 931.586 683.472 931.412 C 698.809 924.902 718.796 915.876 745.793 899.236 L 764.489 886.645 Z"/>
</svg>